<?xml version="1.0" encoding="utf-8"?>
<!DOCTYPE svg PUBLIC '-//W3C//DTD SVG 1.0//EN'
'http://www.w3.org/TR/2001/REC-SVG-20010904/DTD/svg10.dtd'>
<svg fill-opacity="1" xmlns:xlink="http://www.w3.org/1999/xlink"
color-rendering="auto" color-interpolation="auto"
text-rendering="auto" stroke="black" stroke-linecap="square"
width="1150" stroke-miterlimit="10" shape-rendering="auto"
stroke-opacity="1" fill="black" stroke-dasharray="none"
font-weight="normal" stroke-width="1" viewBox="100 0 1150 570"
height="570" xmlns="http://www.w3.org/2000/svg"
font-family="'Dialog'" font-style="normal" stroke-linejoin="miter"
font-size="12px" stroke-dashoffset="0" image-rendering="auto">
  <!--Generated by the Batik Graphics2D SVG Generator-->
  <defs id="genericDefs" />
  <g>
    <defs id="defs1">
      <clipPath clipPathUnits="userSpaceOnUse" id="clipPath1">
        <path d="M0 0 L2147483647 0 L2147483647 2147483647 L0 2147483647 L0 0 Z" />
      </clipPath>
      <clipPath clipPathUnits="userSpaceOnUse" id="clipPath2">
        <path d="M0 0 L0 30 L140 30 L140 0 Z" />
      </clipPath>
      <clipPath clipPathUnits="userSpaceOnUse" id="clipPath3">
        <path d="M0 0 L0 70 L240 70 L240 0 Z" />
      </clipPath>
      <clipPath clipPathUnits="userSpaceOnUse" id="clipPath4">
        <path d="M0 0 L0 110 L270 110 L270 0 Z" />
      </clipPath>
      <clipPath clipPathUnits="userSpaceOnUse" id="clipPath5">
        <path d="M0 0 L0 140 L340 140 L340 0 Z" />
      </clipPath>
      <clipPath clipPathUnits="userSpaceOnUse" id="clipPath6">
        <path d="M0 0 L0 50 L140 50 L140 0 Z" />
      </clipPath>
      <clipPath clipPathUnits="userSpaceOnUse" id="clipPath7">
        <path d="M0 0 L0 50 L50 50 L50 0 Z" />
      </clipPath>
      <clipPath clipPathUnits="userSpaceOnUse" id="clipPath8">
        <path d="M0 0 L0 90 L200 90 L200 0 Z" />
      </clipPath>
      <clipPath clipPathUnits="userSpaceOnUse" id="clipPath9">
        <path d="M0 0 L0 90 L180 90 L180 0 Z" />
      </clipPath>
      <clipPath clipPathUnits="userSpaceOnUse" id="clipPath10">
        <path d="M0 0 L0 90 L140 90 L140 0 Z" />
      </clipPath>
      <clipPath clipPathUnits="userSpaceOnUse" id="clipPath11">
        <path d="M0 0 L0 40 L40 40 L40 0 Z" />
      </clipPath>
      <clipPath clipPathUnits="userSpaceOnUse" id="clipPath12">
        <path d="M0 0 L0 160 L330 160 L330 0 Z" />
      </clipPath>
      <clipPath clipPathUnits="userSpaceOnUse" id="clipPath13">
        <path d="M0 0 L0 60 L160 60 L160 0 Z" />
      </clipPath>
      <clipPath clipPathUnits="userSpaceOnUse" id="clipPath14">
        <path d="M0 0 L0 40 L120 40 L120 0 Z" />
      </clipPath>
      <clipPath clipPathUnits="userSpaceOnUse" id="clipPath15">
        <path d="M0 0 L0 110 L160 110 L160 0 Z" />
      </clipPath>
      <clipPath clipPathUnits="userSpaceOnUse" id="clipPath16">
        <path d="M0 0 L0 240 L70 240 L70 0 Z" />
      </clipPath>
      <clipPath clipPathUnits="userSpaceOnUse" id="clipPath17">
        <path d="M0 0 L0 50 L150 50 L150 0 Z" />
      </clipPath>
      <clipPath clipPathUnits="userSpaceOnUse" id="clipPath18">
        <path d="M0 0 L0 70 L370 70 L370 0 Z" />
      </clipPath>
      <clipPath clipPathUnits="userSpaceOnUse" id="clipPath19">
        <path d="M0 0 L0 30 L1090 30 L1090 0 Z" />
      </clipPath>
      <clipPath clipPathUnits="userSpaceOnUse" id="clipPath20">
        <path d="M0 0 L0 40 L190 40 L190 0 Z" />
      </clipPath>
      <clipPath clipPathUnits="userSpaceOnUse" id="clipPath21">
        <path d="M0 0 L0 180 L730 180 L730 0 Z" />
      </clipPath>
      <clipPath clipPathUnits="userSpaceOnUse" id="clipPath22">
        <path d="M0 0 L0 40 L230 40 L230 0 Z" />
      </clipPath>
      <clipPath clipPathUnits="userSpaceOnUse" id="clipPath23">
        <path d="M0 0 L0 40 L180 40 L180 0 Z" />
      </clipPath>
      <clipPath clipPathUnits="userSpaceOnUse" id="clipPath24">
        <path d="M0 0 L0 50 L160 50 L160 0 Z" />
      </clipPath>
      <clipPath clipPathUnits="userSpaceOnUse" id="clipPath25">
        <path d="M0 0 L0 80 L30 80 L30 0 Z" />
      </clipPath>
    </defs>
    <g fill="rgb(255,255,255)" fill-opacity="0"
    transform="translate(1080,260)" stroke-opacity="0"
    stroke="rgb(255,255,255)">
      <path d="M0.5 0.5 L128.5 0.5 L139 12.5 L139 29 L0.5 29 Z"
      stroke="none" clip-path="url(#clipPath2)" />
    </g>
    <g font-family="sans-serif" font-size="16px"
    transform="translate(1080,260)">
      <text x="5" xml:space="preserve" y="20"
      clip-path="url(#clipPath2)" stroke="none">
Class diagram
</text>
    </g>
    <g fill="rgb(255,255,255)" fill-opacity="0"
    transform="translate(1090,310)" stroke-opacity="0"
    stroke="rgb(255,255,255)">
      <path d="M0.5 0.5 L128.5 0.5 L139 12.5 L139 29 L0.5 29 Z"
      stroke="none" clip-path="url(#clipPath2)" />
    </g>
    <g font-family="sans-serif" font-size="16px"
    transform="translate(1090,310)">
      <text x="5" xml:space="preserve" y="20"
      clip-path="url(#clipPath2)" stroke="none">
Stream flow diagram
</text>
    </g>
    <g fill="rgb(170,255,170)" fill-opacity="0.4902"
    transform="translate(280,220)" stroke-opacity="0.4902"
    stroke="rgb(170,255,170)">
      <path d="M0.5 0.5 L228.5 0.5 L239 12.5 L239 69 L0.5 69 Z"
      stroke="none" clip-path="url(#clipPath3)" />
    </g>
    <g transform="translate(280,220)">
      <path fill="none"
      d="M0.5 0.5 L228.5 0.5 L239 12.5 L239 69 L0.5 69 Z"
      clip-path="url(#clipPath3)" />
      <path fill="none" d="M228.5 0.5 L228.5 12.5 L239 12.5"
      clip-path="url(#clipPath3)" />
      <text x="5" font-size="14px" y="18.1094"
      clip-path="url(#clipPath3)" font-family="sans-serif"
      stroke="none" xml:space="preserve">
Wraps a line
</text>
      <text x="5" font-size="14px" y="34.2188"
      clip-path="url(#clipPath3)" font-family="sans-serif"
      stroke="none" xml:space="preserve">
in a 'Processor' box and 
</text>
      <text x="5" font-size="14px" y="50.3281"
      clip-path="url(#clipPath3)" font-family="sans-serif"
      stroke="none" xml:space="preserve">
add instruction for processing.
</text>
    </g>
    <g fill="rgb(170,255,255)" fill-opacity="0.4902"
    transform="translate(890,330)" stroke-opacity="0.4902"
    stroke="rgb(170,255,255)">
      <path d="M0.5 0.5 L108.5 0.5 L108.5 21.6094 L269 21.6094 L269 109 L0.5 109 Z"
      stroke="none" clip-path="url(#clipPath4)" />
    </g>
    <g transform="translate(890,330)">
      <path fill="none"
      d="M0.5 0.5 L108.5 0.5 L108.5 21.6094 L269 21.6094 L269 109 L0.5 109 Z"
      clip-path="url(#clipPath4)" />
      <path fill="none" d="M0.5 21.6094 L108.5 21.6094"
      clip-path="url(#clipPath4)" />
      <text x="5" font-size="14px" y="16.1094"
      clip-path="url(#clipPath4)" font-family="sans-serif"
      stroke="none" xml:space="preserve">
plugin
</text>
    </g>
    <g fill="rgb(170,255,255)" fill-opacity="0.4902"
    transform="translate(790,20)" stroke-opacity="0.4902"
    stroke="rgb(170,255,255)">
      <path d="M0.5 10.5 L283.5 10.5 L283.5 0.5 L339 0.5 L339 19.5 L310.5 19.5 L310.5 139 L0.5 139 Z"
      stroke="none" clip-path="url(#clipPath5)" />
    </g>
    <g fill="rgb(255,255,255)" fill-opacity="0"
    transform="translate(790,20)" stroke-opacity="0"
    stroke="rgb(255,255,255)">
      <path fill="none"
      d="M0.5 10.5 L283.5 10.5 L283.5 0.5 L339 0.5 L339 19.5 L310.5 19.5 L310.5 139 L0.5 139 Z"
      clip-path="url(#clipPath5)" />
      <rect x="283.5" width="55.5" height="19" y="0.5"
      clip-path="url(#clipPath5)" stroke="none" />
    </g>
    <g stroke-dasharray="8,5" stroke-miterlimit="5"
    transform="translate(790,20)" stroke-linecap="butt">
      <rect fill="none" x="283.5" width="55.5" height="19" y="0.5"
      clip-path="url(#clipPath5)" />
      <path fill="none" stroke-miterlimit="10"
      stroke-dasharray="none"
      d="M283.5 10.5 L0.5 10.5 L0.5 139 L310.5 139 L310.5 19.5"
      clip-path="url(#clipPath5)" stroke-linecap="square" />
    </g>
    <g font-family="sans-serif" font-size="14px"
    transform="translate(790,20)">
      <text x="289" xml:space="preserve" y="16"
      clip-path="url(#clipPath5)" stroke="none">
&lt;P,S&gt;
</text>
      <text x="121" xml:space="preserve" y="37.1094"
      clip-path="url(#clipPath5)" stroke="none">
{service}
</text>
      <text x="112" xml:space="preserve" y="53.2188"
      clip-path="url(#clipPath5)" stroke="none">
TagProvider
</text>
      <path fill="none" d="M1 59.2188 L309.5 59.2188"
      clip-path="url(#clipPath5)" />
      <text x="5" xml:space="preserve" y="74.3281"
      clip-path="url(#clipPath5)" stroke="none">
+ newTags: 
</text>
      <text x="5" xml:space="preserve" y="90.4375"
      clip-path="url(#clipPath5)" stroke="none">
    Map&lt;String,Function
</text>
      <text x="5" xml:space="preserve" y="106.5469"
      clip-path="url(#clipPath5)" stroke="none">
       &lt;Processor,Stream&lt;String&gt; &gt;  &gt;
</text>
    </g>
    <g fill="rgb(255,255,255)" fill-opacity="0"
    transform="translate(820,180)" stroke-opacity="0"
    stroke="rgb(255,255,255)">
      <path d="M0.5 0.5 L128.5 0.5 L139 12.5 L139 49 L0.5 49 Z"
      stroke="none" clip-path="url(#clipPath6)" />
    </g>
    <g transform="translate(820,180)">
      <path fill="none"
      d="M0.5 0.5 L128.5 0.5 L139 12.5 L139 49 L0.5 49 Z"
      clip-path="url(#clipPath6)" />
      <path fill="none" d="M128.5 0.5 L128.5 12.5 L139 12.5"
      clip-path="url(#clipPath6)" />
      <text x="5" font-size="14px" y="18.1094"
      clip-path="url(#clipPath6)" font-family="sans-serif"
      stroke="none" xml:space="preserve">
P = Processor
</text>
      <text x="5" font-size="14px" y="34.2188"
      clip-path="url(#clipPath6)" font-family="sans-serif"
      stroke="none" xml:space="preserve">
S = String
</text>
    </g>
    <g fill="rgb(255,255,255)" fill-opacity="0"
    transform="translate(630,480)" stroke-opacity="0"
    stroke="rgb(255,255,255)">
      <circle r="24.25" clip-path="url(#clipPath7)" cx="24.75"
      cy="24.75" stroke="none" />
    </g>
    <g transform="translate(630,480)">
      <circle fill="none" r="24.25" clip-path="url(#clipPath7)"
      cx="24.75" cy="24.75" />
      <circle r="15.7727" clip-path="url(#clipPath7)" cx="25"
      cy="25" stroke="none" />
    </g>
    <g fill="rgb(255,255,255)" fill-opacity="0"
    transform="translate(630,480)" stroke-opacity="0"
    stroke="rgb(255,255,255)">
      <circle fill="none" r="15.7727" clip-path="url(#clipPath7)"
      cx="25" cy="25" />
    </g>
    <g fill="rgb(255,255,255)" fill-opacity="0"
    transform="translate(270,460)" stroke-opacity="0"
    stroke="rgb(255,255,255)">
      <rect x="0.5" y="0.5" clip-path="url(#clipPath8)"
      width="198.5" rx="18" ry="18" height="88.5" stroke="none" />
    </g>
    <g transform="translate(270,460)">
      <rect x="0.5" y="0.5" clip-path="url(#clipPath8)" fill="none"
      width="198.5" rx="18" ry="18" height="88.5" />
      <text x="73" font-size="14px" y="39.5"
      clip-path="url(#clipPath8)" font-family="sans-serif"
      stroke="none" xml:space="preserve">
flatMap
</text>
      <path fill="none" d="M1 45.5 L199 45.5"
      clip-path="url(#clipPath8)" />
      <text x="5" font-size="14px" y="60.6094"
      clip-path="url(#clipPath8)" font-family="sans-serif"
      stroke="none" xml:space="preserve">
in: Optional&lt;String&gt;
</text>
    </g>
    <g fill="rgb(170,255,170)" fill-opacity="0.4902"
    transform="translate(650,310)" stroke-opacity="0.4902"
    stroke="rgb(170,255,170)">
      <rect x="0.5" y="0.5" clip-path="url(#clipPath9)"
      width="178.5" rx="18" ry="18" height="88.5" stroke="none" />
    </g>
    <g transform="translate(650,310)">
      <rect x="0.5" y="0.5" clip-path="url(#clipPath9)" fill="none"
      width="178.5" rx="18" ry="18" height="88.5" />
      <text x="74" font-size="14px" y="31.4453"
      clip-path="url(#clipPath9)" font-family="sans-serif"
      stroke="none" xml:space="preserve">
map
</text>
      <path fill="none" d="M1 37.4453 L179 37.4453"
      clip-path="url(#clipPath9)" />
      <text x="5" font-size="14px" y="52.5547"
      clip-path="url(#clipPath9)" font-family="sans-serif"
      stroke="none" xml:space="preserve">
in: Processor
</text>
      <text x="5" font-size="14px" y="68.6641"
      clip-path="url(#clipPath9)" font-family="sans-serif"
      stroke="none" xml:space="preserve">
out: Optional&lt;String&gt;
</text>
    </g>
    <g fill="rgb(255,255,255)" fill-opacity="0"
    transform="translate(310,310)" stroke-opacity="0"
    stroke="rgb(255,255,255)">
      <rect x="0.5" y="0.5" clip-path="url(#clipPath10)"
      width="138.5" rx="18" ry="18" height="88.5" stroke="none" />
    </g>
    <g transform="translate(310,310)">
      <rect x="0.5" y="0.5" clip-path="url(#clipPath10)"
      fill="none" width="138.5" rx="18" ry="18" height="88.5" />
      <text x="54" font-size="14px" y="23.3906"
      clip-path="url(#clipPath10)" font-family="sans-serif"
      stroke="none" xml:space="preserve">
map
</text>
      <path fill="none" d="M1 29.3906 L139 29.3906"
      clip-path="url(#clipPath10)" />
      <text x="5" font-size="14px" y="44.5"
      clip-path="url(#clipPath10)" font-family="sans-serif"
      stroke="none" xml:space="preserve">
in: String
</text>
      <text x="5" font-size="14px" y="60.6094"
      clip-path="url(#clipPath10)" font-family="sans-serif"
      stroke="none" xml:space="preserve">
out: Processor
</text>
    </g>
    <g transform="translate(120,330)">
      <circle r="18.75" clip-path="url(#clipPath11)" cx="20.25"
      cy="20.25" stroke="none" />
      <circle fill="none" r="18.75" clip-path="url(#clipPath11)"
      cx="20.25" cy="20.25" stroke="rgb(255,175,175)" />
    </g>
    <g fill="rgb(255,255,255)" fill-opacity="0"
    transform="translate(580,80)" stroke-opacity="0"
    stroke="rgb(255,255,255)">
      <path d="M0.5 10.5 L143.5 10.5 L143.5 0.5 L199 0.5 L199 19.5 L170.5 19.5 L170.5 89 L0.5 89 Z"
      stroke="none" clip-path="url(#clipPath8)" />
      <path fill="none"
      d="M0.5 10.5 L143.5 10.5 L143.5 0.5 L199 0.5 L199 19.5 L170.5 19.5 L170.5 89 L0.5 89 Z"
      clip-path="url(#clipPath8)" />
      <rect x="143.5" width="55.5" height="19" y="0.5"
      clip-path="url(#clipPath8)" stroke="none" />
    </g>
    <g stroke-dasharray="8,5" stroke-miterlimit="5"
    transform="translate(580,80)" stroke-linecap="butt">
      <rect fill="none" x="143.5" width="55.5" height="19" y="0.5"
      clip-path="url(#clipPath8)" />
      <path fill="none" stroke-miterlimit="10"
      stroke-dasharray="none"
      d="M143.5 10.5 L0.5 10.5 L0.5 89 L170.5 89 L170.5 19.5"
      clip-path="url(#clipPath8)" stroke-linecap="square" />
    </g>
    <g font-family="sans-serif" font-size="14px"
    transform="translate(580,80)">
      <text x="149" xml:space="preserve" y="16"
      clip-path="url(#clipPath8)" stroke="none">
&lt;P,S&gt;
</text>
      <text x="44" xml:space="preserve" y="37.1094"
      clip-path="url(#clipPath8)" stroke="none">
{interface}
</text>
      <text x="54" xml:space="preserve" y="53.2188"
      clip-path="url(#clipPath8)" stroke="none">
Function
</text>
      <path fill="none" d="M1 59.2188 L169.5 59.2188"
      clip-path="url(#clipPath8)" />
      <text x="5" xml:space="preserve" y="74.3281"
      clip-path="url(#clipPath8)" stroke="none">
+ apply(P p): S
</text>
    </g>
    <g fill="rgb(255,255,255)" fill-opacity="0"
    transform="translate(120,40)" stroke-opacity="0"
    stroke="rgb(255,255,255)">
      <rect x="0.5" width="328.5" height="158.5" y="0.5"
      clip-path="url(#clipPath12)" stroke="none" />
    </g>
    <g transform="translate(120,40)">
      <rect fill="none" x="0.5" width="328.5" height="158.5"
      y="0.5" clip-path="url(#clipPath12)" />
      <text x="104" font-size="14px" y="18.1094"
      clip-path="url(#clipPath12)" font-family="sans-serif"
      stroke="none" xml:space="preserve">
ProcessorFactory
</text>
      <path fill="none" d="M1 24.1094 L329 24.1094"
      clip-path="url(#clipPath12)" />
      <text x="5" font-size="14px" y="39.2188"
      clip-path="url(#clipPath12)" font-family="sans-serif"
      stroke="none" font-weight="bold" xml:space="preserve">
- lineCounter: int
</text>
      <text x="5" font-size="14px" y="55.3281"
      clip-path="url(#clipPath12)" font-family="sans-serif"
      stroke="none" font-weight="bold" xml:space="preserve">
- isRemoving: boolean
</text>
      <text x="5" font-size="14px" y="71.4375"
      text-decoration="underline" clip-path="url(#clipPath12)"
      font-family="sans-serif" stroke="none" xml:space="preserve">
- mightyRegex: Pattern
</text>
      <text x="5" font-size="14px" y="87.5469"
      text-decoration="underline" clip-path="url(#clipPath12)"
      font-family="sans-serif" stroke="none" xml:space="preserve">
- transformations: Map&lt;Function&lt;P,S&gt; &gt;
</text>
      <text x="5" font-size="14px" y="103.6562"
      clip-path="url(#clipPath12)" font-family="sans-serif"
      stroke="none" xml:space="preserve">
-- 
</text>
      <text x="5" font-size="14px" y="119.7656"
      clip-path="url(#clipPath12)" font-family="sans-serif"
      stroke="none" xml:space="preserve">
+ processorFor(line: String): Processor
</text>
    </g>
    <g fill="rgb(170,255,170)" fill-opacity="0.4902"
    transform="translate(610,220)" stroke-opacity="0.4902"
    stroke="rgb(170,255,170)">
      <rect x="0.5" width="158.5" height="58.5" y="0.5"
      clip-path="url(#clipPath13)" stroke="none" />
    </g>
    <g transform="translate(610,220)">
      <rect fill="none" x="0.5" width="158.5" height="58.5" y="0.5"
      clip-path="url(#clipPath13)" />
      <text x="48" font-size="14px" y="18.1094"
      clip-path="url(#clipPath13)" font-family="sans-serif"
      stroke="none" xml:space="preserve">
{record}
</text>
      <text x="46" font-size="14px" y="34.2188"
      clip-path="url(#clipPath13)" font-family="sans-serif"
      stroke="none" xml:space="preserve">
Processor
</text>
      <path fill="none" d="M1 40.2188 L159 40.2188"
      clip-path="url(#clipPath13)" />
      <text x="5" font-size="14px" y="55.3281"
      clip-path="url(#clipPath13)" font-family="sans-serif"
      stroke="none" xml:space="preserve">
+ line:    String
</text>
      <text x="5" font-size="14px" y="71.4375"
      clip-path="url(#clipPath13)" font-family="sans-serif"
      stroke="none" xml:space="preserve">
+ payLoad: String
</text>
      <text x="5" font-size="14px" y="87.5469"
      clip-path="url(#clipPath13)" font-family="sans-serif"
      stroke="none" xml:space="preserve">
+ transformation(P p): Optional&lt;String&gt;
</text>
      <text x="5" font-size="14px" y="103.6562"
      clip-path="url(#clipPath13)" font-family="sans-serif"
      stroke="none" xml:space="preserve">
+ instruction: String
</text>
      <text x="5" font-size="14px" y="119.7656"
      clip-path="url(#clipPath13)" font-family="sans-serif"
      stroke="none" xml:space="preserve">
+ lineNumber: int
</text>
    </g>
    <g stroke-dasharray="8,5" stroke-miterlimit="5"
    transform="translate(510,240)" stroke-linecap="butt">
      <path fill="none" d="M99.5061 10.6104 L10.5 20.5"
      clip-path="url(#clipPath14)" />
      <path fill="none" stroke-miterlimit="10"
      stroke-dasharray="none"
      d="M88.0958 5.3382 L100.0031 10.5552 L89.5314 18.2587"
      clip-path="url(#clipPath14)" stroke-linecap="square" />
    </g>
    <g stroke-dasharray="8,5" stroke-miterlimit="5"
    transform="translate(510,250)" stroke-linecap="butt">
      <path fill="none" d="M139.6483 89.9759 L10.5 10.5"
      clip-path="url(#clipPath15)" />
      <path fill="none" stroke-miterlimit="10"
      stroke-dasharray="none"
      d="M133.8925 78.8017 L140.0742 90.238 L127.0793 89.8733"
      clip-path="url(#clipPath15)" stroke-linecap="square" />
    </g>
    <g stroke-dasharray="8,5" stroke-miterlimit="5"
    transform="translate(970,150)" stroke-linecap="butt">
      <path fill="none" d="M10.5 11.5 L10.5 80.5"
      clip-path="url(#clipPath16)" />
      <path fill="none" d="M10.5 80.5 L50.5 80.5"
      clip-path="url(#clipPath16)" />
      <path fill="none" d="M50.5 80.5 L50.5 220.5"
      clip-path="url(#clipPath16)" />
      <path fill="white" d="M4 22.2583 L10.5 11 L17 22.2583 Z"
      clip-path="url(#clipPath16)" stroke="none" />
      <path fill="none" stroke-miterlimit="10"
      stroke-dasharray="none" d="M4 22.2583 L10.5 11 L17 22.2583 Z"
      clip-path="url(#clipPath16)" stroke-linecap="square" />
    </g>
    <g fill="rgb(255,255,255)" fill-opacity="0"
    transform="translate(940,370)" stroke-opacity="0"
    stroke="rgb(255,255,255)">
      <rect x="0.5" width="148.5" height="48.5" y="0.5"
      clip-path="url(#clipPath17)" stroke="none" />
    </g>
    <g transform="translate(940,370)">
      <rect fill="none" x="0.5" width="148.5" height="48.5" y="0.5"
      clip-path="url(#clipPath17)" />
      <text x="17" font-size="14px" y="18.1094"
      clip-path="url(#clipPath17)" font-family="sans-serif"
      stroke="none" xml:space="preserve">
TagProviderImpl
</text>
    </g>
    <g stroke-dasharray="8,5" stroke-miterlimit="5"
    transform="translate(440,30)" stroke-linecap="butt">
      <path fill="none" d="M10.5 50.5 L250.5 10.5"
      clip-path="url(#clipPath18)" />
      <path fill="none" d="M250.5 10.5 L349.5 10.5"
      clip-path="url(#clipPath18)" />
      <path fill="none" stroke-miterlimit="10"
      stroke-dasharray="none"
      d="M338.7417 17 L350 10.5 L338.7417 4"
      clip-path="url(#clipPath18)" stroke-linecap="square" />
    </g>
    <g font-family="sans-serif" font-size="14px"
    transform="translate(440,30)">
      <text x="148.0009" xml:space="preserve" y="17.7801"
      clip-path="url(#clipPath18)" stroke="none">
«merge»
</text>
    </g>
    <g transform="translate(120,290)">
      <path fill="none" d="M10.5 10.5 L1070.5 10.5"
      clip-path="url(#clipPath19)" />
    </g>
    <g transform="translate(460,480)">
      <path fill="none" d="M10.5 20.5 L169.5 20.5"
      clip-path="url(#clipPath20)" />
      <path fill="none" d="M158.7417 27 L170 20.5 L158.7417 14"
      clip-path="url(#clipPath20)" />
      <text x="32.6943" font-size="14px" y="16"
      clip-path="url(#clipPath20)" font-family="sans-serif"
      stroke="none" xml:space="preserve">
stream&lt;String&gt;
</text>
    </g>
    <g transform="translate(160,340)">
      <path fill="none" d="M670.5 10.5 L710.5 10.5"
      clip-path="url(#clipPath21)" />
      <path fill="none" d="M710.5 10.5 L710.5 90.5"
      clip-path="url(#clipPath21)" />
      <path fill="none" d="M710.5 90.5 L10.5 90.5"
      clip-path="url(#clipPath21)" />
      <path fill="none" d="M10.5 90.5 L10.5 160.5"
      clip-path="url(#clipPath21)" />
      <path fill="none" d="M10.5 160.5 L109.5 160.5"
      clip-path="url(#clipPath21)" />
      <path fill="none" d="M98.7417 167 L110 160.5 L98.7417 154"
      clip-path="url(#clipPath21)" />
      <text x="226.5342" font-size="14px" y="86"
      clip-path="url(#clipPath21)" font-family="sans-serif"
      stroke="none" xml:space="preserve">
◄ stream&lt;Optional&lt;String&gt; &gt; 
</text>
    </g>
    <g transform="translate(440,330)">
      <path fill="none" d="M10.5 20.5 L209.5 20.5"
      clip-path="url(#clipPath22)" />
      <path fill="none" d="M198.7417 27 L210 20.5 L198.7417 14"
      clip-path="url(#clipPath22)" />
      <text x="39.5933" font-size="14px" y="16"
      clip-path="url(#clipPath22)" font-family="sans-serif"
      stroke="none" xml:space="preserve">
stream&lt;Processor&gt;
</text>
    </g>
    <g transform="translate(150,330)">
      <path fill="none" d="M10.5 20.5 L159.5 20.5"
      clip-path="url(#clipPath23)" />
      <path fill="none" d="M148.7417 27 L160 20.5 L148.7417 14"
      clip-path="url(#clipPath23)" />
      <text x="27.6943" font-size="14px" y="16"
      clip-path="url(#clipPath23)" font-family="sans-serif"
      stroke="none" xml:space="preserve">
stream&lt;String&gt;
</text>
    </g>
    <g stroke-dasharray="8,5" stroke-miterlimit="5"
    transform="translate(440,90)" stroke-linecap="butt">
      <path fill="none" d="M139.5116 30.3479 L10.5 10.5"
      clip-path="url(#clipPath24)" />
      <path fill="none" stroke-miterlimit="10"
      stroke-dasharray="none"
      d="M129.8668 22.2876 L140.0058 30.424 L127.89 35.1365"
      clip-path="url(#clipPath24)" stroke-linecap="square" />
    </g>
    <g stroke-dasharray="8,5" stroke-miterlimit="5"
    transform="translate(690,160)" stroke-linecap="butt">
      <path fill="none" d="M10.5 11.5 L10.5 60.5"
      clip-path="url(#clipPath25)" />
      <path fill="white" d="M4 22.2583 L10.5 11 L17 22.2583 Z"
      clip-path="url(#clipPath25)" stroke="none" />
      <path fill="none" stroke-miterlimit="10"
      stroke-dasharray="none" d="M4 22.2583 L10.5 11 L17 22.2583 Z"
      clip-path="url(#clipPath25)" stroke-linecap="square" />
    </g>
  </g>
  <style>@media (prefers-color-scheme: dark) { svg { filter:
  invert(100%) } }</style>
</svg>
